<svg width="21" height="21" viewBox="0 0 21 21" fill="none" xmlns="http://www.w3.org/2000/svg">
<path d="M20 20L15.4158 15.4158M15.4158 15.4158C16.1999 14.6316 16.8219 13.7007 17.2463 12.6762C17.6707 11.6516 17.8891 10.5535 17.8891 9.44456C17.8891 8.33561 17.6707 7.23751 17.2463 6.21297C16.8219 5.18843 16.1999 4.25751 15.4158 3.47336C14.6316 2.68921 13.7007 2.06718 12.6762 1.6428C11.6516 1.21843 10.5535 1 9.44456 1C8.33561 1 7.23751 1.21843 6.21297 1.6428C5.18843 2.06718 4.25751 2.68921 3.47336 3.47336C1.88969 5.05702 1 7.20493 1 9.44456C1 11.6842 1.88969 13.8321 3.47336 15.4158C5.05702 16.9994 7.20493 17.8891 9.44456 17.8891C11.6842 17.8891 13.8321 16.9994 15.4158 15.4158Z" stroke="#8E8E8E" stroke-linecap="round" stroke-linejoin="round"/>
</svg>
