<svg width="92" height="75" viewBox="0 0 92 75" fill="none" xmlns="http://www.w3.org/2000/svg">
<path d="M2.46271 75C2.93414 73.8453 3.38631 72.6827 3.89757 71.5462C3.97465 71.376 4.33047 71.25 4.55784 71.2487C7.70376 71.2292 10.851 71.2253 13.9969 71.2461C14.4542 71.2487 14.7137 71.1227 14.9616 70.7161C26.5985 51.6583 38.2496 32.6095 49.8993 13.5595C52.5841 9.16912 55.2714 4.77875 57.9574 0.388379C58.0461 0.242899 58.145 0.103914 58.3171 0C58.2208 0.198736 58.1321 0.402667 58.0268 0.597506C49.3405 16.8016 40.6543 33.0083 31.9552 49.2059C31.7316 49.6216 31.7252 49.9125 31.968 50.3204C34.8159 55.0927 37.6432 59.8766 40.4744 64.658C40.6247 64.9112 40.7648 65.1723 40.9639 65.5269C39.3363 65.5269 37.8051 65.5386 36.2765 65.5074C36.1313 65.5049 35.9553 65.2594 35.8526 65.0892C35.1101 63.8526 34.3714 62.6121 33.6572 61.3574C33.4466 60.9859 33.2243 60.804 32.7657 60.8105C30.6038 60.8391 28.4419 60.8378 26.2812 60.8118C25.847 60.8066 25.6402 60.969 25.4462 61.3327C23.0158 65.8919 20.5726 70.4447 18.1332 74.9987C12.9101 75 7.68706 75 2.46271 75ZM31.8999 58.3932C31.0393 56.9306 30.2197 55.5369 29.3565 54.0704C28.5755 55.5291 27.8291 56.9215 27.0417 58.3932C28.6975 58.3932 30.257 58.3932 31.8999 58.3932Z" fill="white"/>
<path d="M38.4315 43.9597C38.9209 43.0375 39.4194 42.2581 39.7585 41.4125C40.0848 40.5994 40.5729 40.4097 41.4079 40.4136C49.2849 40.45 57.1618 40.4344 65.0401 40.4396C65.4435 40.4396 65.8584 40.4422 66.2502 40.5305C67.5425 40.8202 68.3363 41.7684 68.3466 43.1063C68.371 46.1367 68.3749 49.1671 68.3428 52.1975C68.3273 53.6549 67.5823 54.7239 66.4262 55.0356C66.0241 55.1448 65.5809 55.1136 65.1557 55.1227C64.5417 55.1357 63.9264 55.1253 63.1749 55.1253C65.6798 58.6519 68.1128 62.0784 70.6383 65.6323C69.9408 65.6323 69.3768 65.6323 68.8116 65.6323C67.6979 65.6323 66.5842 65.6076 65.473 65.644C65.0465 65.6583 64.8269 65.4972 64.6072 65.1543C62.5827 61.9758 60.5338 58.8129 58.5145 55.6306C58.2769 55.2565 58.0379 55.1032 57.5973 55.1149C56.4219 55.1461 55.2453 55.1253 53.989 55.1253C53.989 58.6194 53.989 62.0888 53.989 65.5998C50.238 65.5998 46.5667 65.5998 42.7605 65.5998C43.2307 64.9815 43.7304 64.4723 44.0554 63.867C44.7734 62.5317 45.805 62.0369 47.2886 62.2525C48.1043 62.3707 48.9496 62.2733 49.8295 62.2733C49.8295 56.1657 49.8295 50.0984 49.8295 43.9584C46.0799 43.9597 42.3251 43.9597 38.4315 43.9597ZM53.9864 50.8765C54.0853 50.9155 54.1226 50.944 54.1611 50.944C57.3288 50.9531 60.4953 50.97 63.6631 50.9583C64.3965 50.9557 64.8577 50.4842 64.8885 49.7308C64.9374 48.5644 64.9515 47.3967 64.9541 46.2302C64.9566 44.9287 64.5006 44.4767 63.2186 44.4754C60.3502 44.4728 57.483 44.4741 54.6145 44.4754C54.409 44.4754 54.2048 44.4936 53.9851 44.5052C53.9864 46.6628 53.9864 48.7592 53.9864 50.8765Z" fill="white"/>
<path d="M91.6694 40.58C91.0078 41.7217 90.4169 42.7648 89.7926 43.7883C89.7065 43.9299 89.4496 44.039 89.2711 44.039C85.6537 44.0494 82.0351 44.0364 78.4177 44.0455C77.999 44.0468 77.5635 44.0962 77.164 44.217C76.627 44.3781 76.3085 44.7872 76.302 45.373C76.2815 47.0824 76.2597 48.7918 76.2738 50.4999C76.2789 51.1584 76.6592 51.5001 77.3914 51.604C77.6444 51.6403 77.9039 51.6248 78.1608 51.6248C81.6716 51.6261 85.1823 51.6053 88.693 51.6442C89.3135 51.6507 89.9635 51.8222 90.5402 52.0625C91.2647 52.3639 91.6167 52.9925 91.6141 53.8174C91.6051 56.9997 91.6167 60.1821 91.6077 63.3632C91.6039 64.5984 91.0566 65.6675 89.3314 65.6428C84.0673 65.5674 78.8005 65.6285 73.5338 65.6363C73.2833 65.6363 73.0315 65.6363 72.6564 65.6363C73.2743 64.4893 73.819 63.4255 74.4291 62.4007C74.5281 62.2344 74.916 62.1889 75.1716 62.1837C76.8621 62.15 78.5539 62.1487 80.2444 62.124C82.2766 62.0941 84.3088 62.0525 86.341 62.011C87.3018 61.9915 87.8825 61.3992 87.8914 60.4172C87.9017 59.2053 87.8914 57.9934 87.8914 56.7802C87.8902 55.2397 87.3995 54.737 85.8438 54.7526C83.4687 54.776 81.0935 54.8266 78.7196 54.8565C77.5853 54.8708 76.4498 54.8812 75.3155 54.8578C74.4934 54.8409 73.7432 54.5486 73.2319 53.8888C72.9737 53.5563 72.7605 53.0835 72.7553 52.6704C72.713 49.2503 72.7181 45.8303 72.7207 42.4102C72.7219 41.2983 73.3797 40.5891 74.4523 40.5865C80.1442 40.5735 85.8387 40.58 91.6694 40.58Z" fill="white"/>
<path d="M0 44.2415C0 42.8685 0 41.5787 0 40.2395C8.72737 40.2395 17.4509 40.2395 26.2361 40.2395C26.1744 40.3837 26.1294 40.5344 26.0511 40.6668C25.4345 41.7034 24.7973 42.7282 24.2013 43.7752C24.0035 44.122 23.7774 44.2402 23.3882 44.2389C20.5197 44.2233 17.65 44.2311 14.7816 44.2311C14.5478 44.2311 14.314 44.2311 13.9954 44.2311C13.9954 51.2869 13.9954 58.3076 13.9954 65.388C12.4924 65.388 11.073 65.388 9.57647 65.388C9.57647 58.3699 9.57647 51.3479 9.57647 44.2441C6.34706 44.2415 3.19216 44.2415 0 44.2415Z" fill="white"/>
</svg>
